<mxfile host="app.diagrams.net" modified="2023-02-06T14:23:59.652Z" agent="5.0 (Windows NT 10.0; Win64; x64) AppleWebKit/537.36 (KHTML, like Gecko) Chrome/109.0.0.0 Safari/537.36 Edg/109.0.1518.61" etag="SawWvV2S5m0xsachBMsc" version="20.8.16" type="github">
  <diagram name="Page-1" id="NgE2ynUpjzcLEW_0qFue">
    <mxGraphModel dx="1148" dy="968" grid="1" gridSize="10" guides="1" tooltips="1" connect="1" arrows="1" fold="1" page="1" pageScale="1" pageWidth="827" pageHeight="1169" math="0" shadow="0">
      <root>
        <mxCell id="0" />
        <mxCell id="1" parent="0" />
        <mxCell id="PI-1HHfiT9_ALAQyO9Ge-1" value="" style="rounded=1;whiteSpace=wrap;html=1;shadow=1;" vertex="1" parent="1">
          <mxGeometry x="200" y="80" width="600" height="1160" as="geometry" />
        </mxCell>
        <mxCell id="PI-1HHfiT9_ALAQyO9Ge-6" value="" style="rounded=1;whiteSpace=wrap;html=1;glass=0;shadow=1;" vertex="1" parent="1">
          <mxGeometry x="300" y="110" width="320" height="310" as="geometry" />
        </mxCell>
        <mxCell id="PI-1HHfiT9_ALAQyO9Ge-2" value="Nginx-Proxy-Manager&lt;br&gt;Proxy" style="rounded=1;whiteSpace=wrap;html=1;shadow=1;" vertex="1" parent="1">
          <mxGeometry x="320" y="130" width="280" height="60" as="geometry" />
        </mxCell>
        <mxCell id="PI-1HHfiT9_ALAQyO9Ge-3" value="" style="endArrow=classic;html=1;rounded=0;entryX=0;entryY=0.5;entryDx=0;entryDy=0;" edge="1" parent="1">
          <mxGeometry width="50" height="50" relative="1" as="geometry">
            <mxPoint x="120" y="150" as="sourcePoint" />
            <mxPoint x="320" y="150" as="targetPoint" />
          </mxGeometry>
        </mxCell>
        <mxCell id="PI-1HHfiT9_ALAQyO9Ge-4" value="" style="rounded=1;whiteSpace=wrap;html=1;shadow=1;" vertex="1" parent="1">
          <mxGeometry x="710" y="130" width="50" height="1030" as="geometry" />
        </mxCell>
        <mxCell id="PI-1HHfiT9_ALAQyO9Ge-5" value="80" style="text;html=1;strokeColor=none;fillColor=none;align=right;verticalAlign=middle;whiteSpace=wrap;rounded=0;" vertex="1" parent="1">
          <mxGeometry x="130" y="130" width="60" height="30" as="geometry" />
        </mxCell>
        <mxCell id="PI-1HHfiT9_ALAQyO9Ge-7" value="" style="endArrow=classic;startArrow=classic;html=1;rounded=0;exitX=1;exitY=0.5;exitDx=0;exitDy=0;entryX=-0.04;entryY=0.031;entryDx=0;entryDy=0;entryPerimeter=0;" edge="1" parent="1" source="PI-1HHfiT9_ALAQyO9Ge-2" target="PI-1HHfiT9_ALAQyO9Ge-4">
          <mxGeometry width="50" height="50" relative="1" as="geometry">
            <mxPoint x="390" y="510" as="sourcePoint" />
            <mxPoint x="440" y="460" as="targetPoint" />
          </mxGeometry>
        </mxCell>
        <mxCell id="PI-1HHfiT9_ALAQyO9Ge-8" value="Heimdal&lt;br&gt;Dashboard" style="rounded=1;whiteSpace=wrap;html=1;shadow=1;" vertex="1" parent="1">
          <mxGeometry x="322" y="200" width="280" height="60" as="geometry" />
        </mxCell>
        <mxCell id="PI-1HHfiT9_ALAQyO9Ge-9" value="" style="endArrow=classic;html=1;rounded=0;entryX=0;entryY=0.5;entryDx=0;entryDy=0;" edge="1" parent="1" target="PI-1HHfiT9_ALAQyO9Ge-8">
          <mxGeometry width="50" height="50" relative="1" as="geometry">
            <mxPoint x="122" y="230" as="sourcePoint" />
            <mxPoint x="442" y="530" as="targetPoint" />
          </mxGeometry>
        </mxCell>
        <mxCell id="PI-1HHfiT9_ALAQyO9Ge-10" value="8086" style="text;html=1;strokeColor=none;fillColor=none;align=right;verticalAlign=middle;whiteSpace=wrap;rounded=0;" vertex="1" parent="1">
          <mxGeometry x="130" y="210" width="60" height="30" as="geometry" />
        </mxCell>
        <mxCell id="PI-1HHfiT9_ALAQyO9Ge-11" value="" style="endArrow=classic;startArrow=classic;html=1;rounded=0;exitX=1;exitY=0.5;exitDx=0;exitDy=0;entryX=-0.06;entryY=0.098;entryDx=0;entryDy=0;entryPerimeter=0;" edge="1" parent="1" source="PI-1HHfiT9_ALAQyO9Ge-8" target="PI-1HHfiT9_ALAQyO9Ge-4">
          <mxGeometry width="50" height="50" relative="1" as="geometry">
            <mxPoint x="392" y="580" as="sourcePoint" />
            <mxPoint x="680" y="230" as="targetPoint" />
          </mxGeometry>
        </mxCell>
        <mxCell id="PI-1HHfiT9_ALAQyO9Ge-12" value="" style="endArrow=classic;html=1;rounded=0;entryX=0;entryY=0.5;entryDx=0;entryDy=0;" edge="1" parent="1">
          <mxGeometry width="50" height="50" relative="1" as="geometry">
            <mxPoint x="120" y="170" as="sourcePoint" />
            <mxPoint x="320" y="170" as="targetPoint" />
          </mxGeometry>
        </mxCell>
        <mxCell id="PI-1HHfiT9_ALAQyO9Ge-13" value="81" style="text;html=1;strokeColor=none;fillColor=none;align=right;verticalAlign=middle;whiteSpace=wrap;rounded=0;" vertex="1" parent="1">
          <mxGeometry x="130" y="160" width="60" height="10" as="geometry" />
        </mxCell>
        <mxCell id="PI-1HHfiT9_ALAQyO9Ge-17" value="80" style="text;html=1;strokeColor=none;fillColor=none;align=right;verticalAlign=middle;whiteSpace=wrap;rounded=0;" vertex="1" parent="1">
          <mxGeometry x="240" y="210" width="60" height="30" as="geometry" />
        </mxCell>
        <mxCell id="PI-1HHfiT9_ALAQyO9Ge-19" value="10.10.10.254" style="text;html=1;strokeColor=none;fillColor=none;align=center;verticalAlign=middle;whiteSpace=wrap;rounded=0;" vertex="1" parent="1">
          <mxGeometry x="615" y="130" width="90" height="30" as="geometry" />
        </mxCell>
        <mxCell id="PI-1HHfiT9_ALAQyO9Ge-20" value="10.10.10.253" style="text;html=1;strokeColor=none;fillColor=none;align=center;verticalAlign=middle;whiteSpace=wrap;rounded=0;" vertex="1" parent="1">
          <mxGeometry x="610" y="200" width="100" height="30" as="geometry" />
        </mxCell>
        <mxCell id="PI-1HHfiT9_ALAQyO9Ge-21" value="" style="rounded=1;whiteSpace=wrap;html=1;glass=0;shadow=1;" vertex="1" parent="1">
          <mxGeometry x="295" y="440" width="320" height="310" as="geometry" />
        </mxCell>
        <mxCell id="PI-1HHfiT9_ALAQyO9Ge-22" value="Transmision-VPN&lt;br&gt;Torrent Downloader" style="rounded=1;whiteSpace=wrap;html=1;shadow=1;fillColor=#fff2cc;strokeColor=#d6b656;" vertex="1" parent="1">
          <mxGeometry x="315" y="460" width="280" height="60" as="geometry" />
        </mxCell>
        <mxCell id="PI-1HHfiT9_ALAQyO9Ge-23" value="" style="endArrow=classic;html=1;rounded=0;entryX=0;entryY=0.5;entryDx=0;entryDy=0;" edge="1" parent="1">
          <mxGeometry width="50" height="50" relative="1" as="geometry">
            <mxPoint x="115" y="480" as="sourcePoint" />
            <mxPoint x="315" y="480" as="targetPoint" />
          </mxGeometry>
        </mxCell>
        <mxCell id="PI-1HHfiT9_ALAQyO9Ge-24" value="9091" style="text;html=1;strokeColor=none;fillColor=none;align=right;verticalAlign=middle;whiteSpace=wrap;rounded=0;" vertex="1" parent="1">
          <mxGeometry x="125" y="460" width="60" height="30" as="geometry" />
        </mxCell>
        <mxCell id="PI-1HHfiT9_ALAQyO9Ge-25" value="" style="endArrow=classic;startArrow=classic;html=1;rounded=0;exitX=1;exitY=0.5;exitDx=0;exitDy=0;entryX=-0.04;entryY=0.04;entryDx=0;entryDy=0;entryPerimeter=0;" edge="1" parent="1" source="PI-1HHfiT9_ALAQyO9Ge-22">
          <mxGeometry width="50" height="50" relative="1" as="geometry">
            <mxPoint x="385" y="840" as="sourcePoint" />
            <mxPoint x="703" y="490" as="targetPoint" />
          </mxGeometry>
        </mxCell>
        <mxCell id="PI-1HHfiT9_ALAQyO9Ge-26" value="NZBGet&lt;br&gt;NNTP Downloader" style="rounded=1;whiteSpace=wrap;html=1;shadow=1;fillColor=#f8cecc;strokeColor=#b85450;" vertex="1" parent="1">
          <mxGeometry x="317" y="530" width="280" height="60" as="geometry" />
        </mxCell>
        <mxCell id="PI-1HHfiT9_ALAQyO9Ge-27" value="" style="endArrow=classic;html=1;rounded=0;entryX=0;entryY=0.5;entryDx=0;entryDy=0;" edge="1" parent="1">
          <mxGeometry width="50" height="50" relative="1" as="geometry">
            <mxPoint x="117" y="550" as="sourcePoint" />
            <mxPoint x="317" y="550" as="targetPoint" />
          </mxGeometry>
        </mxCell>
        <mxCell id="PI-1HHfiT9_ALAQyO9Ge-28" value="6789" style="text;html=1;strokeColor=none;fillColor=none;align=right;verticalAlign=middle;whiteSpace=wrap;rounded=0;" vertex="1" parent="1">
          <mxGeometry x="125" y="530" width="60" height="30" as="geometry" />
        </mxCell>
        <mxCell id="PI-1HHfiT9_ALAQyO9Ge-29" value="" style="endArrow=classic;startArrow=classic;html=1;rounded=0;exitX=1;exitY=0.5;exitDx=0;exitDy=0;entryX=-0.06;entryY=0.132;entryDx=0;entryDy=0;entryPerimeter=0;" edge="1" parent="1" source="PI-1HHfiT9_ALAQyO9Ge-26">
          <mxGeometry width="50" height="50" relative="1" as="geometry">
            <mxPoint x="387" y="910" as="sourcePoint" />
            <mxPoint x="702" y="559" as="targetPoint" />
          </mxGeometry>
        </mxCell>
        <mxCell id="PI-1HHfiT9_ALAQyO9Ge-33" value="10.10.10.169" style="text;html=1;strokeColor=none;fillColor=none;align=center;verticalAlign=middle;whiteSpace=wrap;rounded=0;" vertex="1" parent="1">
          <mxGeometry x="610" y="460" width="90" height="30" as="geometry" />
        </mxCell>
        <mxCell id="PI-1HHfiT9_ALAQyO9Ge-34" value="10.10.10.216" style="text;html=1;strokeColor=none;fillColor=none;align=center;verticalAlign=middle;whiteSpace=wrap;rounded=0;" vertex="1" parent="1">
          <mxGeometry x="605" y="530" width="100" height="30" as="geometry" />
        </mxCell>
        <mxCell id="PI-1HHfiT9_ALAQyO9Ge-35" value="" style="rounded=1;whiteSpace=wrap;html=1;glass=0;shadow=1;" vertex="1" parent="1">
          <mxGeometry x="295" y="770" width="320" height="310" as="geometry" />
        </mxCell>
        <mxCell id="PI-1HHfiT9_ALAQyO9Ge-36" value="Prowlarr&lt;br&gt;Indexer Proxy" style="rounded=1;whiteSpace=wrap;html=1;shadow=1;" vertex="1" parent="1">
          <mxGeometry x="315" y="790" width="280" height="60" as="geometry" />
        </mxCell>
        <mxCell id="PI-1HHfiT9_ALAQyO9Ge-37" value="" style="endArrow=classic;html=1;rounded=0;entryX=0;entryY=0.5;entryDx=0;entryDy=0;" edge="1" parent="1">
          <mxGeometry width="50" height="50" relative="1" as="geometry">
            <mxPoint x="115" y="810" as="sourcePoint" />
            <mxPoint x="315" y="810" as="targetPoint" />
          </mxGeometry>
        </mxCell>
        <mxCell id="PI-1HHfiT9_ALAQyO9Ge-38" value="9091" style="text;html=1;strokeColor=none;fillColor=none;align=right;verticalAlign=middle;whiteSpace=wrap;rounded=0;" vertex="1" parent="1">
          <mxGeometry x="125" y="790" width="60" height="30" as="geometry" />
        </mxCell>
        <mxCell id="PI-1HHfiT9_ALAQyO9Ge-39" value="" style="endArrow=classic;startArrow=classic;html=1;rounded=0;exitX=1;exitY=0.5;exitDx=0;exitDy=0;entryX=-0.04;entryY=0.04;entryDx=0;entryDy=0;entryPerimeter=0;" edge="1" parent="1" source="PI-1HHfiT9_ALAQyO9Ge-36">
          <mxGeometry width="50" height="50" relative="1" as="geometry">
            <mxPoint x="385" y="1170" as="sourcePoint" />
            <mxPoint x="703" y="820" as="targetPoint" />
          </mxGeometry>
        </mxCell>
        <mxCell id="PI-1HHfiT9_ALAQyO9Ge-40" value="Radarr&lt;br&gt;Movie Recorder" style="rounded=1;whiteSpace=wrap;html=1;shadow=1;fillColor=#e1d5e7;strokeColor=#9673a6;" vertex="1" parent="1">
          <mxGeometry x="317" y="860" width="280" height="60" as="geometry" />
        </mxCell>
        <mxCell id="PI-1HHfiT9_ALAQyO9Ge-41" value="" style="endArrow=classic;html=1;rounded=0;entryX=0;entryY=0.5;entryDx=0;entryDy=0;" edge="1" parent="1">
          <mxGeometry width="50" height="50" relative="1" as="geometry">
            <mxPoint x="117" y="880" as="sourcePoint" />
            <mxPoint x="317" y="880" as="targetPoint" />
          </mxGeometry>
        </mxCell>
        <mxCell id="PI-1HHfiT9_ALAQyO9Ge-42" value="7878" style="text;html=1;strokeColor=none;fillColor=none;align=right;verticalAlign=middle;whiteSpace=wrap;rounded=0;" vertex="1" parent="1">
          <mxGeometry x="125" y="860" width="60" height="30" as="geometry" />
        </mxCell>
        <mxCell id="PI-1HHfiT9_ALAQyO9Ge-43" value="" style="endArrow=classic;startArrow=classic;html=1;rounded=0;exitX=1;exitY=0.5;exitDx=0;exitDy=0;entryX=-0.06;entryY=0.132;entryDx=0;entryDy=0;entryPerimeter=0;" edge="1" parent="1" source="PI-1HHfiT9_ALAQyO9Ge-40">
          <mxGeometry width="50" height="50" relative="1" as="geometry">
            <mxPoint x="387" y="1240" as="sourcePoint" />
            <mxPoint x="702" y="889" as="targetPoint" />
          </mxGeometry>
        </mxCell>
        <mxCell id="PI-1HHfiT9_ALAQyO9Ge-44" value="10.10.10.163" style="text;html=1;strokeColor=none;fillColor=none;align=center;verticalAlign=middle;whiteSpace=wrap;rounded=0;" vertex="1" parent="1">
          <mxGeometry x="610" y="790" width="90" height="30" as="geometry" />
        </mxCell>
        <mxCell id="PI-1HHfiT9_ALAQyO9Ge-45" value="10.10.10.164" style="text;html=1;strokeColor=none;fillColor=none;align=center;verticalAlign=middle;whiteSpace=wrap;rounded=0;" vertex="1" parent="1">
          <mxGeometry x="605" y="860" width="100" height="30" as="geometry" />
        </mxCell>
        <mxCell id="PI-1HHfiT9_ALAQyO9Ge-46" value="Sonarr&lt;br&gt;TV Recorder" style="rounded=1;whiteSpace=wrap;html=1;shadow=1;fillColor=#d5e8d4;strokeColor=#82b366;" vertex="1" parent="1">
          <mxGeometry x="317" y="930" width="280" height="60" as="geometry" />
        </mxCell>
        <mxCell id="PI-1HHfiT9_ALAQyO9Ge-47" value="" style="endArrow=classic;html=1;rounded=0;entryX=0;entryY=0.5;entryDx=0;entryDy=0;" edge="1" parent="1">
          <mxGeometry width="50" height="50" relative="1" as="geometry">
            <mxPoint x="117" y="950" as="sourcePoint" />
            <mxPoint x="317" y="950" as="targetPoint" />
          </mxGeometry>
        </mxCell>
        <mxCell id="PI-1HHfiT9_ALAQyO9Ge-48" value="8989" style="text;html=1;strokeColor=none;fillColor=none;align=right;verticalAlign=middle;whiteSpace=wrap;rounded=0;" vertex="1" parent="1">
          <mxGeometry x="125" y="930" width="60" height="30" as="geometry" />
        </mxCell>
        <mxCell id="PI-1HHfiT9_ALAQyO9Ge-49" value="" style="endArrow=classic;startArrow=classic;html=1;rounded=0;exitX=1;exitY=0.5;exitDx=0;exitDy=0;entryX=-0.06;entryY=0.132;entryDx=0;entryDy=0;entryPerimeter=0;" edge="1" parent="1" source="PI-1HHfiT9_ALAQyO9Ge-46">
          <mxGeometry width="50" height="50" relative="1" as="geometry">
            <mxPoint x="387" y="1310" as="sourcePoint" />
            <mxPoint x="702" y="959" as="targetPoint" />
          </mxGeometry>
        </mxCell>
        <mxCell id="PI-1HHfiT9_ALAQyO9Ge-50" value="10.10.10.167" style="text;html=1;strokeColor=none;fillColor=none;align=center;verticalAlign=middle;whiteSpace=wrap;rounded=0;" vertex="1" parent="1">
          <mxGeometry x="605" y="930" width="100" height="30" as="geometry" />
        </mxCell>
        <mxCell id="PI-1HHfiT9_ALAQyO9Ge-51" value="" style="rounded=1;whiteSpace=wrap;html=1;shadow=1;glass=0;" vertex="1" parent="1">
          <mxGeometry x="820" y="80" width="380" height="480" as="geometry" />
        </mxCell>
        <mxCell id="PI-1HHfiT9_ALAQyO9Ge-52" value="" style="sketch=0;pointerEvents=1;shadow=0;dashed=0;html=1;strokeColor=none;fillColor=#505050;labelPosition=center;verticalLabelPosition=bottom;verticalAlign=top;outlineConnect=0;align=center;shape=mxgraph.office.concepts.folder_open;rounded=1;glass=0;" vertex="1" parent="1">
          <mxGeometry x="880" y="123.5" width="50" height="36.5" as="geometry" />
        </mxCell>
        <mxCell id="PI-1HHfiT9_ALAQyO9Ge-53" value="" style="sketch=0;pointerEvents=1;shadow=0;dashed=0;html=1;strokeColor=none;fillColor=#505050;labelPosition=center;verticalLabelPosition=bottom;verticalAlign=top;outlineConnect=0;align=center;shape=mxgraph.office.concepts.folder_open;rounded=1;glass=0;" vertex="1" parent="1">
          <mxGeometry x="880" y="180" width="50" height="36.5" as="geometry" />
        </mxCell>
        <mxCell id="PI-1HHfiT9_ALAQyO9Ge-54" value="goku_media" style="text;html=1;strokeColor=none;fillColor=none;align=left;verticalAlign=middle;whiteSpace=wrap;rounded=0;" vertex="1" parent="1">
          <mxGeometry x="940" y="126.75" width="120" height="36.5" as="geometry" />
        </mxCell>
        <mxCell id="PI-1HHfiT9_ALAQyO9Ge-55" value="appdata" style="text;html=1;strokeColor=none;fillColor=none;align=left;verticalAlign=middle;whiteSpace=wrap;rounded=0;" vertex="1" parent="1">
          <mxGeometry x="940" y="180" width="120" height="36.5" as="geometry" />
        </mxCell>
        <mxCell id="PI-1HHfiT9_ALAQyO9Ge-56" value="" style="rounded=1;whiteSpace=wrap;html=1;shadow=1;glass=0;" vertex="1" parent="1">
          <mxGeometry x="1241" y="80" width="380" height="480" as="geometry" />
        </mxCell>
        <mxCell id="PI-1HHfiT9_ALAQyO9Ge-57" value="" style="sketch=0;pointerEvents=1;shadow=0;dashed=0;html=1;strokeColor=none;fillColor=#505050;labelPosition=center;verticalLabelPosition=bottom;verticalAlign=top;outlineConnect=0;align=center;shape=mxgraph.office.concepts.folder_open;rounded=1;glass=0;" vertex="1" parent="1">
          <mxGeometry x="1280" y="125.13" width="50" height="36.5" as="geometry" />
        </mxCell>
        <mxCell id="PI-1HHfiT9_ALAQyO9Ge-58" value="goku_media" style="text;html=1;strokeColor=none;fillColor=none;align=left;verticalAlign=middle;whiteSpace=wrap;rounded=0;" vertex="1" parent="1">
          <mxGeometry x="1340" y="128.38" width="120" height="36.5" as="geometry" />
        </mxCell>
        <mxCell id="PI-1HHfiT9_ALAQyO9Ge-59" value="" style="endArrow=classic;startArrow=classic;html=1;rounded=0;exitX=1;exitY=0.5;exitDx=0;exitDy=0;" edge="1" parent="1" source="PI-1HHfiT9_ALAQyO9Ge-54" target="PI-1HHfiT9_ALAQyO9Ge-57">
          <mxGeometry width="50" height="50" relative="1" as="geometry">
            <mxPoint x="1180" y="510" as="sourcePoint" />
            <mxPoint x="1230" y="460" as="targetPoint" />
          </mxGeometry>
        </mxCell>
        <mxCell id="PI-1HHfiT9_ALAQyO9Ge-60" value="" style="sketch=0;pointerEvents=1;shadow=0;dashed=0;html=1;strokeColor=none;fillColor=#505050;labelPosition=center;verticalLabelPosition=bottom;verticalAlign=top;outlineConnect=0;align=center;shape=mxgraph.office.concepts.folder_open;rounded=1;glass=0;" vertex="1" parent="1">
          <mxGeometry x="1330" y="178.37" width="50" height="36.5" as="geometry" />
        </mxCell>
        <mxCell id="PI-1HHfiT9_ALAQyO9Ge-61" value="downloads" style="text;html=1;strokeColor=none;fillColor=none;align=left;verticalAlign=middle;whiteSpace=wrap;rounded=0;" vertex="1" parent="1">
          <mxGeometry x="1390" y="181.62" width="120" height="36.5" as="geometry" />
        </mxCell>
        <mxCell id="PI-1HHfiT9_ALAQyO9Ge-62" value="" style="sketch=0;pointerEvents=1;shadow=0;dashed=0;html=1;strokeColor=none;fillColor=#505050;labelPosition=center;verticalLabelPosition=bottom;verticalAlign=top;outlineConnect=0;align=center;shape=mxgraph.office.concepts.folder_open;rounded=1;glass=0;" vertex="1" parent="1">
          <mxGeometry x="1330" y="480.25" width="50" height="36.5" as="geometry" />
        </mxCell>
        <mxCell id="PI-1HHfiT9_ALAQyO9Ge-63" value="media" style="text;html=1;strokeColor=none;fillColor=none;align=left;verticalAlign=middle;whiteSpace=wrap;rounded=0;" vertex="1" parent="1">
          <mxGeometry x="1390" y="483.5" width="120" height="36.5" as="geometry" />
        </mxCell>
        <mxCell id="PI-1HHfiT9_ALAQyO9Ge-64" value="" style="sketch=0;pointerEvents=1;shadow=0;dashed=0;html=1;strokeColor=none;fillColor=#505050;labelPosition=center;verticalLabelPosition=bottom;verticalAlign=top;outlineConnect=0;align=center;shape=mxgraph.office.concepts.folder_open;rounded=1;glass=0;" vertex="1" parent="1">
          <mxGeometry x="1390" y="220.25" width="50" height="36.5" as="geometry" />
        </mxCell>
        <mxCell id="PI-1HHfiT9_ALAQyO9Ge-65" value="completed" style="text;html=1;strokeColor=none;fillColor=none;align=left;verticalAlign=middle;whiteSpace=wrap;rounded=0;" vertex="1" parent="1">
          <mxGeometry x="1450" y="223.5" width="120" height="36.5" as="geometry" />
        </mxCell>
        <mxCell id="PI-1HHfiT9_ALAQyO9Ge-66" value="" style="sketch=0;pointerEvents=1;shadow=0;dashed=0;html=1;strokeColor=none;fillColor=#505050;labelPosition=center;verticalLabelPosition=bottom;verticalAlign=top;outlineConnect=0;align=center;shape=mxgraph.office.concepts.folder_open;rounded=1;glass=0;" vertex="1" parent="1">
          <mxGeometry x="1390" y="260" width="50" height="36.5" as="geometry" />
        </mxCell>
        <mxCell id="PI-1HHfiT9_ALAQyO9Ge-67" value="intermediate" style="text;html=1;strokeColor=none;fillColor=none;align=left;verticalAlign=middle;whiteSpace=wrap;rounded=0;" vertex="1" parent="1">
          <mxGeometry x="1450" y="263.25" width="120" height="36.5" as="geometry" />
        </mxCell>
        <mxCell id="PI-1HHfiT9_ALAQyO9Ge-68" value="" style="sketch=0;pointerEvents=1;shadow=0;dashed=0;html=1;strokeColor=none;fillColor=#505050;labelPosition=center;verticalLabelPosition=bottom;verticalAlign=top;outlineConnect=0;align=center;shape=mxgraph.office.concepts.folder_open;rounded=1;glass=0;" vertex="1" parent="1">
          <mxGeometry x="1390" y="300.13" width="50" height="36.5" as="geometry" />
        </mxCell>
        <mxCell id="PI-1HHfiT9_ALAQyO9Ge-69" value="nzb" style="text;html=1;strokeColor=none;fillColor=none;align=left;verticalAlign=middle;whiteSpace=wrap;rounded=0;" vertex="1" parent="1">
          <mxGeometry x="1450" y="303.38" width="120" height="36.5" as="geometry" />
        </mxCell>
        <mxCell id="PI-1HHfiT9_ALAQyO9Ge-70" value="" style="sketch=0;pointerEvents=1;shadow=0;dashed=0;html=1;strokeColor=none;fillColor=#505050;labelPosition=center;verticalLabelPosition=bottom;verticalAlign=top;outlineConnect=0;align=center;shape=mxgraph.office.concepts.folder_open;rounded=1;glass=0;" vertex="1" parent="1">
          <mxGeometry x="1390" y="339.88" width="50" height="36.5" as="geometry" />
        </mxCell>
        <mxCell id="PI-1HHfiT9_ALAQyO9Ge-71" value="queue" style="text;html=1;strokeColor=none;fillColor=none;align=left;verticalAlign=middle;whiteSpace=wrap;rounded=0;" vertex="1" parent="1">
          <mxGeometry x="1450" y="343.13" width="120" height="36.5" as="geometry" />
        </mxCell>
        <mxCell id="PI-1HHfiT9_ALAQyO9Ge-72" value="" style="sketch=0;pointerEvents=1;shadow=0;dashed=0;html=1;strokeColor=none;fillColor=#505050;labelPosition=center;verticalLabelPosition=bottom;verticalAlign=top;outlineConnect=0;align=center;shape=mxgraph.office.concepts.folder_open;rounded=1;glass=0;" vertex="1" parent="1">
          <mxGeometry x="1390" y="380.25" width="50" height="36.5" as="geometry" />
        </mxCell>
        <mxCell id="PI-1HHfiT9_ALAQyO9Ge-73" value="tmp" style="text;html=1;strokeColor=none;fillColor=none;align=left;verticalAlign=middle;whiteSpace=wrap;rounded=0;" vertex="1" parent="1">
          <mxGeometry x="1450" y="383.5" width="120" height="36.5" as="geometry" />
        </mxCell>
        <mxCell id="PI-1HHfiT9_ALAQyO9Ge-74" value="" style="sketch=0;pointerEvents=1;shadow=0;dashed=0;html=1;strokeColor=#d6b656;fillColor=#fff2cc;labelPosition=center;verticalLabelPosition=bottom;verticalAlign=top;outlineConnect=0;align=center;shape=mxgraph.office.concepts.folder_open;rounded=1;glass=0;" vertex="1" parent="1">
          <mxGeometry x="1390" y="420.25" width="50" height="36.5" as="geometry" />
        </mxCell>
        <mxCell id="PI-1HHfiT9_ALAQyO9Ge-75" value="torrents" style="text;html=1;strokeColor=none;fillColor=none;align=left;verticalAlign=middle;whiteSpace=wrap;rounded=0;" vertex="1" parent="1">
          <mxGeometry x="1450" y="423.5" width="120" height="36.5" as="geometry" />
        </mxCell>
        <mxCell id="PI-1HHfiT9_ALAQyO9Ge-78" value="" style="endArrow=none;html=1;rounded=0;exitX=0.3;exitY=0.75;exitDx=0;exitDy=0;exitPerimeter=0;" edge="1" parent="1">
          <mxGeometry width="50" height="50" relative="1" as="geometry">
            <mxPoint x="1350" y="440" as="sourcePoint" />
            <mxPoint x="1350" y="214.8699999999999" as="targetPoint" />
          </mxGeometry>
        </mxCell>
        <mxCell id="PI-1HHfiT9_ALAQyO9Ge-79" value="" style="endArrow=classic;html=1;rounded=0;exitX=0.287;exitY=0.331;exitDx=0;exitDy=0;exitPerimeter=0;" edge="1" parent="1" source="PI-1HHfiT9_ALAQyO9Ge-56" target="PI-1HHfiT9_ALAQyO9Ge-64">
          <mxGeometry width="50" height="50" relative="1" as="geometry">
            <mxPoint x="1360" y="239" as="sourcePoint" />
            <mxPoint x="1230" y="460" as="targetPoint" />
          </mxGeometry>
        </mxCell>
      </root>
    </mxGraphModel>
  </diagram>
</mxfile>
